<svg xmlns="http://www.w3.org/2000/svg" viewBox="0 0 1600 900" role="img" aria-label="Worldroot tactical biome map"><defs><linearGradient id="ground" x1="0" y1="0" x2="1" y2="1"><stop offset="0" stop-color="#071b14"/><stop offset=".48" stop-color="#0b2419"/><stop offset="1" stop-color="#03100d"/></linearGradient><radialGradient id="glow" cx="50%" cy="50%" r="50%"><stop offset="0" stop-color="#77ffc0" stop-opacity=".58"/><stop offset=".2" stop-color="#23b77a" stop-opacity=".2"/><stop offset="1" stop-color="#23b77a" stop-opacity="0"/></radialGradient><radialGradient id="anomaly" cx="50%" cy="50%" r="50%"><stop offset="0" stop-color="#d594ff" stop-opacity=".58"/><stop offset=".24" stop-color="#7a36b5" stop-opacity=".25"/><stop offset="1" stop-color="#7a36b5" stop-opacity="0"/></radialGradient><filter id="soft" x="-40%" y="-40%" width="180%" height="180%"><feGaussianBlur stdDeviation="16"/></filter><filter id="smallGlow" x="-100%" y="-100%" width="300%" height="300%"><feGaussianBlur stdDeviation="4"/></filter><pattern id="grid" width="64" height="64" patternUnits="userSpaceOnUse"><path d="M64 0H0V64" fill="none" stroke="#6fffb3" stroke-opacity=".035"/></pattern><pattern id="trees" width="76" height="76" patternUnits="userSpaceOnUse"><g fill="#153a27" stroke="#3f7652" stroke-opacity=".28" stroke-width="1"><path d="M16 58L30 26l14 32z"/><path d="M44 68L58 34l14 34z"/><path d="M-8 22L5-8l14 30z"/></g></pattern></defs><rect width="1600" height="900" fill="url(#ground)"/><rect width="1600" height="900" fill="url(#trees)" opacity=".78"/><rect width="1600" height="900" fill="url(#grid)"/><g opacity=".5" fill="none" stroke="#7adfa9" stroke-opacity=".13" stroke-width="2"><path d="M-50 720C210 570 390 640 580 500s370-230 620-140 290 40 470-80"/><path d="M-20 790C230 640 420 700 630 545s380-220 620-130 260 45 430-70"/><path d="M20 850C260 730 455 760 680 600s390-190 620-100 220 44 350-50"/></g><g opacity=".62"><path d="M80 290L230 78l118 200 83-132 132 226H80z" fill="#122d24" stroke="#57906f" stroke-opacity=".26"/><path d="M1030 280l140-200 112 168 82-115 145 235h-478z" fill="#102b23" stroke="#57906f" stroke-opacity=".25"/><path d="M1080 730l130-184 96 142 69-102 130 208h-425z" fill="#102920" stroke="#57906f" stroke-opacity=".22"/></g><g opacity=".5" fill="none" stroke="#60e99a" stroke-opacity=".13"><ellipse cx="790" cy="455" rx="270" ry="170"/><ellipse cx="790" cy="455" rx="205" ry="126"/><ellipse cx="790" cy="455" rx="135" ry="82"/><path d="M520 455h540M790 285v340"/></g><circle cx="790" cy="455" r="180" fill="url(#glow)" filter="url(#soft)"/><circle cx="1225" cy="690" r="135" fill="url(#anomaly)" filter="url(#soft)"/><g fill="#70ffb0" opacity=".82" filter="url(#smallGlow)"><circle cx="350" cy="350" r="5"/><circle cx="790" cy="455" r="7"/><circle cx="1120" cy="340" r="5"/><circle cx="1225" cy="690" r="5"/></g><g fill="#bfffe0" opacity=".78"><path d="M345 350l5-18 5 18-5 18z"/><path d="M785 455l5-25 5 25-5 25z"/><path d="M1115 340l5-18 5 18-5 18z"/></g><g stroke-linecap="round" fill="none"><path d="M350 350Q540 270 790 455" stroke="#6fffb3" stroke-opacity=".55" stroke-width="4" stroke-dasharray="10 14"/><path d="M790 455Q950 255 1120 340" stroke="#6fffb3" stroke-opacity=".55" stroke-width="4" stroke-dasharray="10 14"/><path d="M790 455Q1010 560 1225 690" stroke="#a06be6" stroke-opacity=".48" stroke-width="4" stroke-dasharray="9 13"/></g><g opacity=".65" fill="#2d754d"><circle cx="250" cy="520" r="7"/><circle cx="300" cy="610" r="5"/><circle cx="420" cy="690" r="6"/><circle cx="520" cy="190" r="5"/><circle cx="620" cy="710" r="7"/><circle cx="910" cy="175" r="5"/><circle cx="1030" cy="600" r="6"/><circle cx="1310" cy="250" r="7"/><circle cx="1420" cy="560" r="5"/></g><rect x="12" y="12" width="1576" height="876" rx="20" fill="none" stroke="#9de9bd" stroke-opacity=".13"/></svg>